<?xml version="1.0" encoding="UTF-8" standalone="no"?>
<svg width="512px" height="512px" viewBox="0 0 512 512" version="1.1" xmlns="http://www.w3.org/2000/svg" xmlns:xlink="http://www.w3.org/1999/xlink">
    <!-- Generator: Sketch 3.8.3 (29802) - http://www.bohemiancoding.com/sketch -->
    <title>512 - Play Store</title>
    <desc>Created with Sketch.</desc>
    <defs>
        <radialGradient cx="50%" cy="51.3071696%" fx="50%" fy="51.3071696%" r="48.6928304%" id="radialGradient-1">
            <stop stop-color="#23D0A4" offset="0%"></stop>
            <stop stop-color="#23D0A4" stop-opacity="0.7" offset="100%"></stop>
        </radialGradient>
    </defs>
    <g id="Page-1" stroke="none" stroke-width="1" fill="none" fill-rule="evenodd">
        <g id="512---Play-Store">
            <rect id="Base" fill="url(#radialGradient-1)" x="0" y="0" width="512" height="512" rx="21.36"></rect>
            <path d="M483,220.094488 C483,196 471.286894,174.267717 453.482972,161.03937 C441.301342,151.590551 425.840041,146.393701 409.441692,146.393701 L346.190918,146.393701 C341.9742,146.393701 338.226006,144.031496 335.414861,140.724409 L335.414861,140.251969 C333.072239,137.417323 329.324045,136 325.575851,136 L185.955624,136 C182.20743,136 178.459236,137.417323 176.116615,140.251969 L176.116615,140.724409 C173.30547,144.031496 169.557276,146.393701 165.340557,146.393701 L102.089783,146.393701 C85.2229102,146.393701 69.2930857,152.062992 57.1114551,161.984252 C39.7760578,175.685039 29,196.472441 29,220.566929 L29,302.299213 C29,325.92126 40.244582,347.181102 57.1114551,360.409449 C69.7616099,370.330709 85.2229102,376 102.089783,376 L409.441692,376 C426.308566,376 441.301342,370.330709 453.951496,360.88189 C471.755418,347.181102 483,325.92126 483,301.826772 L483,220.094488 Z" id="Frame" stroke-opacity="0.1" stroke="#FFFFFF" stroke-width="2.67" fill-opacity="0.1" fill="#008462"></path>
            <g id="Icons" transform="translate(110.000000, 199.000000)" stroke="#FFFFFF" stroke-opacity="0.1" stroke-width="2.67">
                <path d="M54.8032391,108.110334 C26.9411701,108.110334 4.30323909,85.2482646 4.30323909,57.1103336 C4.30323909,28.9724025 26.9411701,6.11033358 54.8032391,6.11033358 C82.6653081,6.11033358 105.303239,28.9724025 105.303239,57.1103336 C105.303239,85.2482646 82.6653081,108.110334 54.8032391,108.110334 M54.8,2.31621593 C24.555102,2.31621593 0.359183673,27.1374829 0.359183673,57.1103336 C0.359183673,87.55151 25.0204082,111.904451 54.8,111.904451 C85.044898,111.904451 109.240816,87.0831843 109.240816,57.1103336 C109.706122,26.6691571 85.044898,2.31621593 54.8,2.31621593" id="Fill-3" fill="#008462"></path>
                <g id="Basketball" transform="translate(179.777778, 0.943912)" fill="#F35220">
                    <path d="M2.24203447,60.6244143 C3.1866059,72.3138261 7.77917732,82.9776044 14.8844018,91.4543012 C18.3835039,79.6009754 24.54881,67.8225818 32.4822794,57.0276723 C32.147259,56.8450252 31.8075855,56.6717447 31.4725651,56.5125139 C22.5293814,52.2975818 9.6776263,54.1755682 2.24203447,60.6244143" id="Fill-5"></path>
                    <path d="M24.5939447,25.3988216 L16.9675773,18.523799 C7.76382222,28.311808 2.09174059,41.4998623 2.04986304,55.9992288 C10.7371283,49.9952922 23.5795773,48.6184143 33.0671692,53.0909257 C33.662761,53.3719211 34.2304345,53.6763329 34.7841488,53.9947944 C37.8225977,50.0983238 41.0797406,46.3376677 44.527659,42.783075 C38.0599039,36.7791383 31.4199855,30.962532 24.5939447,25.3988216" id="Fill-7"></path>
                    <path d="M59.9479039,1.47627181 C55.4390875,9.58299127 55.020312,21.4878329 59.3011283,29.6179686 C68.9701896,22.2090546 79.4023528,16.4064981 89.8950059,12.9315207 C81.5194957,6.35622656 71.1943528,2.18812701 59.9479039,1.47627181" id="Fill-9"></path>
                    <path d="M83.5589324,84.305308 C72.3171365,70.5458962 60.1633406,57.5030229 47.2417896,45.2984528 C43.9101977,48.7265976 40.7647283,52.3514392 37.8286467,56.1120953 C43.1517488,60.5330908 45.757463,67.2114166 45.2316671,75.4492673 C45.6690549,85.2841089 51.5970549,94.4351949 61.0986059,99.9473895 C68.1386875,104.03119 76.0535447,105.417435 83.0098712,103.993724 C86.8160753,101.848792 90.3337896,99.2589505 93.5071773,96.2944483 L83.5589324,84.305308" id="Fill-11"></path>
                    <path d="M93.3043039,15.8253057 C82.3556508,19.0708035 71.4163039,24.9951248 61.3331202,32.7365501 C64.2878141,36.4503736 69.2154059,39.7052379 77.3815283,39.1526134 L77.4838957,39.1479302 L77.586263,39.1526134 C87.618263,39.5694234 97.0174467,45.0207356 103.382834,54.106256 C106.495732,58.555351 108.575651,63.439989 109.557447,68.3527266 C110.446181,64.4281564 110.934753,60.3490388 110.934753,56.1575229 C110.934753,40.215713 104.131977,25.8474777 93.3043039,15.8253057" id="Fill-13"></path>
                    <path d="M59.2229569,103.22005 C48.5674467,97.0381496 41.9321814,86.6787831 41.4715283,75.5045297 L41.4668753,75.4014981 L41.4761814,75.2984664 C42.0298957,67.084032 39.1031202,62.1197786 35.5481814,59.1178103 C27.3541406,70.2545976 21.0957732,82.482584 17.8525896,94.719937 C27.7217324,104.742109 41.3970794,110.961475 56.49161,110.961475 C62.5592018,110.961475 68.3941406,109.940525 73.8521814,108.085955 C68.8966712,107.538014 63.8806712,105.92229 59.2229569,103.22005" id="Fill-15"></path>
                    <path d="M100.312279,56.2835026 C94.6448508,48.1955162 86.3484426,43.3342944 77.5308916,42.9315343 C69.4857488,43.4513759 62.8411773,40.6788872 58.3835447,35.0730275 C55.4707283,37.4521225 52.6370141,39.9763985 49.9103202,42.6318057 C62.8970141,54.9066248 75.1392181,68.0431632 86.45081,81.8915569 L96.180361,93.6137514 C100.279708,89.2161723 103.662483,84.1348374 106.151871,78.5664438 C107.240688,71.3214438 105.174728,63.2334573 100.312279,56.2835026" id="Fill-17"></path>
                    <path d="M19.6393651,15.8594935 L27.0284263,22.5190863 C33.9289161,28.143679 40.6432834,34.0305343 47.1947937,40.1140863 C50.1262222,37.2479324 53.1739773,34.5269596 56.3147937,31.974584 C56.2077732,31.7825705 56.0960998,31.6046067 55.9937324,31.4125931 C51.3732426,22.659584 51.4849161,10.4831134 55.7796916,1.37417679 C41.8577324,1.55214059 29.1781406,7.01281932 19.6393651,15.8594935" id="Fill-19"></path>
                </g>
            </g>
        </g>
    </g>
</svg>